PathFileType	4	(X/Y/Z)	Patient4_TMGait_0pt6_02_left_44.trc.trc
DataRate	CameraRate	NumFrames	NumMarkers	Units	OrigDataRate	OrigDataStartFrame	OrigNumFrames
81.871345029240	81.871345029240	4	33	mm	81.871345029240	89	       141
Frame#	Time	Sacral			L.Shoulder			Chest			R.Shoulder			Neck			R.ASIS			L.ASIS			R.Thigh.Superior			R.Thigh.Lateral			R.Thigh.Inferior			R.Patella			L.Thigh.Superior			L.Thigh.Lateral			L.Thigh.Inferior			L.Patella			L.Shank.Superior			L.Shank.Lateral			L.Shank.Inferior			R.Shank.Superior			R.Shank.Lateral			R.Shank.Inferior			R.Heel			R.Midfoot.Superior			R.Midfoot.Lateral			R.Toe			L.Heel			L.Midfoot.Lateral			L.Midfoot.Superior			L.Toe			L.Elbow			L.Wrist			R.Elbow			R.Wrist			
		X1	Y1	Z1	X2	Y2	Z2	X3	Y3	Z3	X4	Y4	Z4	X5	Y5	Z5	X6	Y6	Z6	X7	Y7	Z7	X8	Y8	Z8	X9	Y9	Z9	X10	Y10	Z10	X11	Y11	Z11	X12	Y12	Z12	X13	Y13	Z13	X14	Y14	Z14	X15	Y15	Z15	X16	Y16	Z16	X17	Y17	Z17	X18	Y18	Z18	X19	Y19	Z19	X20	Y20	Z20	X21	Y21	Z21	X22	Y22	Z22	X23	Y23	Z23	X24	Y24	Z24	X25	Y25	Z25	X26	Y26	Z26	X27	Y27	Z27	X28	Y28	Z28	X29	Y29	Z29	X30	Y30	Z30	X31	Y31	Z31	X32	Y32	Z32	X33	Y33	Z33	

89	54.764857142857	863.957961060550	1011.388011967121	516.520015955952	1067.277420347097	1432.896171352522	340.576155720461	1160.878770699852	1356.328861244450	502.901339409556	1076.880101875295	1433.976239753528	673.936960106614	1062.929488259650	1492.502126736071	492.767801810526	1089.349241152569	940.324743997126	634.576954948660	1074.544664239203	960.286975630872	362.229815027854	1142.233906917985	747.357423926433	604.854036332678	1066.771360726868	635.731628820534	664.452169602199	1145.979124201163	588.430963852246	583.010839664130	1152.747046058605	502.939026133540	588.860788971996	1112.567185834244	742.668162994606	384.278457953675	1024.114122659963	628.879441165753	319.263675969008	1110.148367642165	543.384350176337	376.702271167254	1102.075503671181	458.050279990272	374.908613209167	1034.391610144880	400.965708126708	370.413942168578	895.465889931140	354.047354688043	321.198133032442	883.915701314866	227.186295130583	380.804000437103	1135.772717832392	413.345770388655	596.737945022062	1076.694063632425	302.751862338051	659.493705302050	1128.903190143077	212.944602666670	595.517020875215	1011.144060897926	43.321991634594	565.539542989368	1181.787301326333	98.945871164433	598.429700211274	1095.971954041298	37.282950792054	638.492380973757	1303.833886806723	45.809249033757	621.722258109895	695.501702357618	152.837348996254	418.997907308419	756.544796857837	109.833859520469	340.700651221498	859.120195589257	125.919664162900	362.952373263184	944.699634950026	32.310572008799	339.233720153638	1098.548953306757	1100.839787017790	185.540975856198	1330.196168708319	1009.119190167340	253.480711557648	973.285621655571	1099.880790839795	791.813527497000	983.095035478947	838.090252448665	788.692409948625	
90	54.777071428571	863.342669762746	1012.052173268218	519.328432616267	1066.238225478854	1433.410935668154	342.412136234206	1160.906093001304	1356.603787115262	504.040063639701	1078.194983446238	1434.167414641273	675.687254005313	1062.969246192411	1492.928700938730	494.707911536647	1089.218293541951	941.021309162531	636.174122282507	1074.564534188819	961.015585836961	362.723837339232	1139.639403967847	746.582717946560	607.283313614852	1062.623902144223	635.877869728648	666.487429686975	1141.236498794981	587.796225212620	584.943932694139	1147.006691358558	502.605794849702	590.426144197809	1116.986378122321	745.958672614308	386.544015057849	1033.794650003836	629.784823211921	320.243110589001	1122.547584987148	546.533322106048	377.944919831680	1115.872979558523	459.910271122834	375.533508717510	1046.416584827467	402.771533368680	371.025595087742	905.951209733936	360.627512616241	321.610587925423	890.157743588431	234.176160861695	380.873042957628	1129.856184947901	413.162544060884	598.068005354342	1070.424579331512	302.612917100226	660.455608460946	1122.231520271995	212.833661039780	596.163581327982	1003.941739631963	43.368004095840	565.688397534810	1174.654766927928	98.824690278825	598.716220794906	1088.745561491579	37.230404456675	638.659521902558	1296.678424640709	45.330822106598	621.946614460307	698.871939401993	168.858065111999	418.289240160897	758.052113729650	122.443533933121	340.266329622694	861.563765044334	132.730857515706	363.045169296798	941.491542615304	32.433434272901	339.784112673999	1091.784545838810	1098.737028815352	190.245211167232	1319.412817825344	992.938220077272	253.947570369203	984.667657689693	1096.571594675036	794.780777391721	1007.738142249090	835.501567931892	789.022094332712	
91	54.789285714286	862.533183061165	1012.572177635416	521.879434176371	1064.843353186732	1433.800550124167	344.116316861826	1160.720944224309	1356.761298369389	504.989007945889	1079.312177679419	1434.130662723081	677.310169188682	1062.778928979422	1493.217328025894	496.543168178198	1088.896868788700	941.613005095397	637.642671041192	1074.720780365750	961.834469931566	363.179674032880	1136.922486967274	745.795438552523	609.708701021597	1058.460287187110	635.977407726039	668.449668612369	1136.557760791326	587.162634531634	586.878209212764	1141.343750179417	502.252368360567	592.046324680528	1121.231197958168	749.400807149514	388.797036143763	1043.347222769852	631.105362931627	321.112201348237	1134.591240247090	550.211743622117	379.212344582069	1129.520531460215	462.426556938662	376.263247188534	1058.598928398023	405.050542864755	371.652919032590	916.907079685561	367.161312390546	321.964002010760	897.281025920112	241.200793062682	380.998764979483	1123.965594462477	412.933391839150	599.393090918535	1064.095532860050	302.444809385161	661.369686656893	1115.523076537544	212.676783342591	596.803425988324	996.637937217736	43.413601503216	565.811937679717	1167.449468532487	98.664287181569	598.974759568152	1081.420928407383	37.171548794635	638.801284091648	1289.430112620033	44.787340240783	622.127743832545	703.660398417630	183.958095529992	417.575451637208	761.209302971326	134.675650309432	339.830303915870	865.342789934469	139.840808373487	363.232414771392	940.196800705539	33.284636759938	340.348691257543	1084.946519629022	1096.596441309870	194.848078292927	1307.393542365029	976.509567359729	254.236160532186	996.333272075110	1093.397861879809	797.578619956501	1033.040388870932	833.793035235050	789.125935872295	
92	54.801500000000	861.537984181526	1013.007986198889	524.140165033712	1063.184005459994	1434.099758551522	345.672155871874	1160.338853109141	1356.839395082742	505.766147592951	1080.213640523738	1433.938636643242	678.791086395033	1062.404178169102	1493.416038319773	498.241834754431	1088.375434295833	942.141281078091	639.027821225338	1074.896306069838	962.690520220428	363.689037063942	1134.151886710392	745.061618928665	612.072166631040	1054.343262430002	636.061926015709	670.304463467578	1132.007545198567	586.553672211326	588.779353494290	1135.817274982078	501.895529887692	593.673247129645	1125.205177769896	753.000844047528	391.040895731531	1052.585003178749	632.891750749022	321.875972225063	1146.094016211990	554.427027816885	380.470605812365	1142.838958278767	465.622169670837	377.017236044219	1070.786410510716	407.818550257388	372.244215890825	928.159560767859	373.500001649222	322.255674007317	905.291631794773	248.028593359731	381.145002007064	1118.154826900292	412.681104371604	600.679542584104	1057.767399401637	302.282651673892	662.229313005966	1108.820827191837	212.496674017828	597.425314926448	989.264975183185	43.464921711247	565.924705554390	1160.198232080326	98.495147055131	599.211226194837	1074.032505046836	37.120024730176	638.928305932872	1282.117506437735	44.231247114299	622.276071774956	709.870285457761	197.496646830664	416.890597880111	766.118724662366	145.977796352282	339.404740040781	870.606379203483	146.947392701452	363.453624426371	941.236213043471	34.943800586077	340.855769345578	1078.020615963791	1094.452542917180	199.351969872453	1294.050704827894	960.023128617243	254.332821174934	1008.294248390671	1090.438065113621	800.139814777800	1058.875467587179	833.110578862647	788.944771833970	
